# xmcd
#
# Track frame offsets:
#	187
#	22980
#	41642
#	55515
#	68462
#	81925
#	98502
#	114477
#	165975
#	195370
#
# Disc length: 3170
#
# Revision: 2
# Processed by: cddbd v1.5.1PL0 Copyright (c) Steve Scherf et al.
# Submitted via: CDex 1.51
# Normalized: r1:TDELIM( - )
#
DISCID=670c600a
DTITLE=Various Artist - V.S.O.P. Album (Mercury 40th Anniversary V.S.O.P. Album) Disc 4
DYEAR=1984
DGENRE=Jazz
TTITLE0=Billy Taylor - At La Carrousel
TTITLE1=Billy Taylor - Paraphrase
TTITLE2=Art Farmer-Benny Golson - Tonk
TTITLE3=Art Farmer-Benny Golson - Sonny's Back
TTITLE4=Art Farmer-Benny Golson - Another Get Together
TTITLE5=Bob James - Softly As A Morning Sunrise
TTITLE6=Bob James - Ghost Riders In The Sky
TTITLE7=Dizzy Gillespie - Blues
TTITLE8=Dizzy Gillespie - My Funny Valentine
TTITLE9=Dizzy Gillespie - A Night In Tunisia
EXTD=YEAR: 1984
EXTT0=
EXTT1=
EXTT2=
EXTT3=
EXTT4=
EXTT5=
EXTT6=
EXTT7=
EXTT8=
EXTT9=
PLAYORDER=
